<svg width="226.79375px" height="122px" xmlns="http://www.w3.org/2000/svg" viewBox="136.603125 14 226.79375 122" style="background: rgba(0, 0, 0, 0);" preserveAspectRatio="xMidYMid"><defs><filter id="editing-extrusion" x="-100%" y="-100%" width="300%" height="300%"><feFlood result="color1" flood-color="#444"></feFlood><feConvolveMatrix order="8,8" divisor="1" kernelMatrix="1 0 0 0 0 0 0 0 0 1 0 0 0 0 0 0 0 0 1 0 0 0 0 0 0 0 0 1 0 0 0 0 0 0 0 0 1 0 0 0 0 0 0 0 0 1 0 0 0 0 0 0 0 0 1 0 0 0 0 0 0 0 0 1" in="SourceAlpha" result="extrude"></feConvolveMatrix><feComposite in="color1" in2="extrude" result="comp-extrude" operator="in"></feComposite><feOffset dx="4" dy="4" in="comp-extrude" result="offset-extrude"></feOffset><feMerge><feMergeNode in="offset-extrude"></feMergeNode><feMergeNode in="SourceGraphic"></feMergeNode></feMerge></filter></defs><g filter="url(#editing-extrusion)"><g transform="translate(176.0791301727295, 102.52000045776367)"><path d="M29.18 1.28L29.18 1.28L29.18 1.28Q20.99 1.28 20.22-10.37L20.22-10.37L9.22-10.37L9.22-10.37Q7.94-7.42 7.04-4.86L7.04-4.86L5.38 0L-3.58 0L16.58-42.24L30.34-42.24L33.02-11.14L33.02-11.14Q33.66-4.42 36.22-2.43L36.22-2.43L36.22-2.43Q34.37 1.28 29.18 1.28ZM14.72-23.17L11.20-15.04L20.03-15.04L19.26-31.49L19.26-33.22L14.72-23.17ZM69.76-4.38L69.76-4.38L69.76-4.38Q67.07-1.66 63.39-0.19L63.39-0.19L63.39-0.19Q59.71 1.28 56.06 1.28L56.06 1.28L56.06 1.28Q52.42 1.28 51.14 0.64L51.14 0.64L49.15 11.52L36.16 12.80L44.99-32.64L55.42-33.73L54.59-29.31L54.59-29.31Q57.28-33.86 62.85-33.86L62.85-33.86L62.85-33.86Q69.12-33.86 72.45-29.82L72.45-29.82L72.45-29.82Q75.39-26.18 75.39-20.61L75.39-20.61L75.39-20.61Q75.39-15.04 73.92-11.07L73.92-11.07L73.92-11.07Q72.45-7.10 69.76-4.38ZM55.30-22.34L51.90-3.58L51.90-3.58Q53.25-2.43 54.91-2.43L54.91-2.43L54.91-2.43Q56.58-2.43 57.54-3.07L57.54-3.07L57.54-3.07Q58.50-3.71 59.20-4.99L59.20-4.99L59.20-4.99Q61.12-8.45 62.66-18.94L62.66-18.94L62.66-18.94Q63.10-22.02 63.10-25.02L63.10-25.02L63.10-25.02Q63.10-28.03 62.43-28.99L62.43-28.99L62.43-28.99Q61.76-29.95 60.48-29.95L60.48-29.95L60.48-29.95Q56.58-29.95 55.30-22.34L55.30-22.34ZM105.15-10.82L105.15-10.82L105.15-10.82Q106.75-9.73 106.75-7.33L106.75-7.33L106.75-7.33Q106.75-4.93 105.54-3.39L105.54-3.39L105.54-3.39Q104.32-1.86 102.34-0.83L102.34-0.83L102.34-0.83Q98.24 1.28 93.82 1.28L93.82 1.28L93.82 1.28Q89.41 1.28 86.82 0.32L86.82 0.32L86.82 0.32Q84.22-0.64 82.50-2.43L82.50-2.43L82.50-2.43Q79.10-5.82 79.10-12.03L79.10-12.03L79.10-12.03Q79.10-21.70 84.35-27.58L84.35-27.58L84.35-27.58Q89.98-33.92 99.78-33.92L99.78-33.92L99.78-33.92Q105.86-33.92 108.86-31.36L108.86-31.36L108.86-31.36Q111.10-29.44 111.10-26.30L111.10-26.30L111.10-26.30Q111.10-15.04 91.65-15.04L91.65-15.04L91.65-15.04Q91.39-13.38 91.39-11.97L91.39-11.97L91.39-11.97Q91.39-9.02 92.70-7.90L92.70-7.90L92.70-7.90Q94.02-6.78 96.45-6.78L96.45-6.78L96.45-6.78Q98.88-6.78 101.47-7.90L101.47-7.90L101.47-7.90Q104.06-9.02 105.15-10.82ZM92.10-17.79L92.10-17.79L92.10-17.79Q96.64-17.79 99.26-20.61L99.26-20.61L99.26-20.61Q101.89-23.30 101.89-27.58L101.89-27.58L101.89-27.58Q101.89-29.06 101.34-29.86L101.34-29.86L101.34-29.86Q100.80-30.66 99.71-30.66L99.71-30.66L99.71-30.66Q98.62-30.66 97.70-30.24L97.70-30.24L97.70-30.24Q96.77-29.82 95.81-28.42L95.81-28.42L95.81-28.42Q93.44-25.22 92.10-17.79ZM121.79 0.19L121.79 0.19L121.79 0.19Q119.74 1.28 116.93 1.28L116.93 1.28L116.93 1.28Q114.11 1.28 112.58-0.16L112.58-0.16L112.58-0.16Q111.04-1.60 111.04-4.38L111.04-4.38L111.04-4.38Q111.04-7.17 112.99-9.89L112.99-9.89L112.99-9.89Q114.94-12.61 117.86-14.14L117.86-14.14L117.86-14.14Q120.77-15.68 122.82-16.58L122.82-16.58L118.78-25.86L118.78-25.86Q117.70-28.22 115.65-28.22L115.65-28.22L115.14-28.16L114.94-28.16L114.94-28.16Q115.33-30.40 117.95-32.13L117.95-32.13L117.95-32.13Q120.58-33.92 123.58-33.92L123.58-33.92L123.58-33.92Q128.45-33.92 130.69-29.06L130.69-29.06L131.20-28.03L133.95-21.25L133.95-21.25Q135.68-22.02 136.42-23.46L136.42-23.46L136.42-23.46Q137.15-24.90 137.15-27.74L137.15-27.74L137.15-27.74Q137.15-30.59 135.62-32.38L135.62-32.38L135.62-32.38Q138.05-33.92 141.25-33.92L141.25-33.92L141.25-33.92Q147.01-33.92 147.01-28.35L147.01-28.35L147.01-28.35Q147.01-22.27 139.39-18.75L139.39-18.75L135.55-16.96L139.01-8.06L139.01-8.06Q140.03-5.38 141.89-4.22L141.89-4.22L141.89-4.22Q142.66-3.71 143.55-3.65L143.55-3.65L143.55-3.65Q141.63-0.51 137.47 0.90L137.47 0.90L137.47 0.90Q136.19 1.28 134.46 1.28L134.46 1.28L134.46 1.28Q132.74 1.28 130.75 0.10L130.75 0.10L130.75 0.10Q128.77-1.09 128.06-2.94L128.06-2.94L124.54-12.10L124.54-12.10Q120.96-10.50 120.96-4.67L120.96-4.67L120.96-4.67Q120.96-1.98 121.79 0.19Z" fill="#ccc"></path></g></g><style>text {
  font-size: 64px;
  font-family: Arial Black;
  dominant-baseline: central;
  text-anchor: middle;
}</style></svg>